<?xml version="1.0" encoding="UTF-8"?><svg xmlns="http://www.w3.org/2000/svg" xmlns:xlink="http://www.w3.org/1999/xlink" contentScriptType="text/ecmascript" width="120pt" zoomAndPan="magnify" contentStyleType="text/css" viewBox="0 0 120 33.749998" height="33.749998pt" preserveAspectRatio="xMidYMid meet" version="1.2"><defs><g/><clipPath xml:id="clip1" id="clip1"><path d="M 0.441406 0 L 119.558594 0 L 119.558594 33.5 L 0.441406 33.5 Z M 0.441406 0 "/></clipPath><clipPath xml:id="clip2" id="clip2"><path d="M 52 1.132812 L 68 1.132812 L 68 19 L 52 19 Z M 52 1.132812 "/></clipPath></defs><g xml:id="surface1" id="surface1"><g clip-rule="nonzero" clip-path="url(#clip1)"><path style=" stroke:none;fill-rule:nonzero;fill:rgb(100%,100%,100%);fill-opacity:1;" d="M 0.441406 0 L 119.558594 0 L 119.558594 40.203125 L 0.441406 40.203125 Z M 0.441406 0 "/><path style=" stroke:none;fill-rule:nonzero;fill:rgb(100%,100%,100%);fill-opacity:1;" d="M 0.441406 0 L 119.558594 0 L 119.558594 33.5 L 0.441406 33.5 Z M 0.441406 0 "/><path style=" stroke:none;fill-rule:nonzero;fill:rgb(100%,100%,100%);fill-opacity:1;" d="M 0.441406 0 L 119.558594 0 L 119.558594 33.5 L 0.441406 33.5 Z M 0.441406 0 "/></g><path style=" stroke:none;fill-rule:nonzero;fill:rgb(100%,8.628845%,8.628845%);fill-opacity:1;" d="M 55.589844 7.652344 L 56.464844 7.980469 L 56.46875 7.980469 L 59.917969 9.273438 L 63.378906 7.980469 L 64.261719 7.652344 L 59.917969 6.019531 Z M 55.589844 7.652344 "/><g clip-rule="nonzero" clip-path="url(#clip2)"><path style=" stroke:none;fill-rule:nonzero;fill:rgb(100%,8.628845%,8.628845%);fill-opacity:1;" d="M 59.917969 1.160156 C 59.160156 1.160156 58.421875 1.273438 57.699219 1.496094 C 56.976562 1.71875 56.304688 2.039062 55.679688 2.464844 C 55.054688 2.886719 54.507812 3.390625 54.035156 3.976562 C 53.566406 4.5625 53.191406 5.207031 52.914062 5.902344 C 52.640625 6.601562 52.472656 7.324219 52.414062 8.070312 C 52.359375 8.820312 52.414062 9.558594 52.582031 10.289062 C 52.75 11.019531 53.023438 11.710938 53.398438 12.359375 C 53.777344 13.007812 54.242188 13.589844 54.796875 14.097656 L 59.660156 18.917969 C 59.734375 18.976562 59.820312 19.011719 59.914062 19.019531 C 60.019531 19.019531 60.113281 18.988281 60.191406 18.917969 L 64.972656 14.160156 C 65.539062 13.652344 66.019531 13.078125 66.40625 12.429688 C 66.796875 11.777344 67.078125 11.085938 67.257812 10.351562 C 67.433594 9.617188 67.496094 8.875 67.445312 8.121094 C 67.398438 7.367188 67.234375 6.640625 66.960938 5.933594 C 66.6875 5.230469 66.3125 4.582031 65.839844 3.988281 C 65.367188 3.398438 64.816406 2.890625 64.1875 2.460938 C 63.558594 2.035156 62.878906 1.710938 62.152344 1.488281 C 61.425781 1.265625 60.679688 1.15625 59.917969 1.160156 Z M 65.214844 10.902344 C 65.207031 11 65.171875 11.085938 65.097656 11.160156 C 65.023438 11.230469 64.9375 11.265625 64.835938 11.269531 C 64.730469 11.269531 64.640625 11.234375 64.566406 11.164062 C 64.492188 11.089844 64.457031 11.003906 64.457031 10.902344 L 64.457031 9.160156 C 64.453125 9.058594 64.488281 8.96875 64.5625 8.894531 C 64.640625 8.820312 64.730469 8.785156 64.835938 8.785156 C 64.9375 8.789062 65.027344 8.828125 65.097656 8.898438 C 65.171875 8.972656 65.210938 9.058594 65.214844 9.160156 Z M 65.453125 8.003906 L 63.902344 8.578125 L 63.902344 10.921875 C 63.898438 11.105469 63.808594 11.222656 63.632812 11.269531 L 60.066406 12.613281 C 60.015625 12.632812 59.96875 12.640625 59.917969 12.640625 C 59.878906 12.640625 59.84375 12.632812 59.808594 12.613281 L 56.199219 11.273438 C 56.050781 11.203125 55.972656 11.089844 55.96875 10.921875 L 55.96875 8.578125 L 54.421875 8.003906 C 54.25 7.949219 54.160156 7.832031 54.152344 7.65625 C 54.160156 7.476562 54.25 7.359375 54.421875 7.308594 L 59.808594 5.285156 C 59.894531 5.246094 59.980469 5.246094 60.066406 5.285156 L 65.453125 7.308594 C 65.617188 7.363281 65.695312 7.480469 65.683594 7.652344 C 65.691406 7.828125 65.617188 7.941406 65.453125 8.003906 Z M 65.453125 8.003906 "/></g><g style="fill:rgb(100%,8.628845%,8.628845%);fill-opacity:1;"><g transform="translate(22.047929, 28.589278)"><path style="stroke:none;" d="M 4.9375 0 L 4.609375 -1.28125 L 2.375 -1.28125 L 2.03125 0 L 0 0 L 2.234375 -6.875 L 4.703125 -6.875 L 6.96875 0 Z M 4.21875 -2.796875 L 3.921875 -3.921875 C 3.859375 -4.171875 3.773438 -4.492188 3.671875 -4.890625 C 3.578125 -5.285156 3.515625 -5.570312 3.484375 -5.75 C 3.453125 -5.59375 3.394531 -5.328125 3.3125 -4.953125 C 3.226562 -4.585938 3.046875 -3.867188 2.765625 -2.796875 Z M 4.21875 -2.796875 "/></g></g><g style="fill:rgb(100%,8.628845%,8.628845%);fill-opacity:1;"><g transform="translate(29.013329, 28.589278)"><path style="stroke:none;" d="M 2.28125 0.09375 C 1.90625 0.09375 1.570312 -0.0078125 1.28125 -0.21875 C 1 -0.4375 0.78125 -0.753906 0.625 -1.171875 C 0.476562 -1.597656 0.40625 -2.085938 0.40625 -2.640625 C 0.40625 -3.503906 0.578125 -4.179688 0.921875 -4.671875 C 1.265625 -5.160156 1.742188 -5.40625 2.359375 -5.40625 C 2.648438 -5.40625 2.90625 -5.34375 3.125 -5.21875 C 3.351562 -5.101562 3.5625 -4.90625 3.75 -4.625 L 3.78125 -4.625 C 3.71875 -5.039062 3.6875 -5.457031 3.6875 -5.875 L 3.6875 -7.28125 L 5.53125 -7.28125 L 5.53125 0 L 4.15625 0 L 3.765625 -0.671875 L 3.6875 -0.671875 C 3.375 -0.160156 2.90625 0.09375 2.28125 0.09375 Z M 3.03125 -1.359375 C 3.320312 -1.359375 3.523438 -1.445312 3.640625 -1.625 C 3.765625 -1.8125 3.832031 -2.097656 3.84375 -2.484375 L 3.84375 -2.625 C 3.84375 -3.09375 3.773438 -3.425781 3.640625 -3.625 C 3.503906 -3.820312 3.296875 -3.921875 3.015625 -3.921875 C 2.773438 -3.921875 2.585938 -3.804688 2.453125 -3.578125 C 2.316406 -3.359375 2.25 -3.039062 2.25 -2.625 C 2.25 -2.207031 2.316406 -1.890625 2.453125 -1.671875 C 2.585938 -1.460938 2.78125 -1.359375 3.03125 -1.359375 Z M 3.03125 -1.359375 "/></g></g><g style="fill:rgb(100%,8.628845%,8.628845%);fill-opacity:1;"><g transform="translate(35.182416, 28.589278)"><path style="stroke:none;" d="M 7.15625 0 L 7.15625 -2.890625 C 7.15625 -3.242188 7.101562 -3.507812 7 -3.6875 C 6.90625 -3.875 6.75 -3.96875 6.53125 -3.96875 C 6.25 -3.96875 6.039062 -3.84375 5.90625 -3.59375 C 5.78125 -3.351562 5.71875 -2.976562 5.71875 -2.46875 L 5.71875 0 L 3.890625 0 L 3.890625 -2.890625 C 3.890625 -3.242188 3.84375 -3.507812 3.75 -3.6875 C 3.65625 -3.875 3.5 -3.96875 3.28125 -3.96875 C 3 -3.96875 2.789062 -3.835938 2.65625 -3.578125 C 2.53125 -3.316406 2.46875 -2.898438 2.46875 -2.328125 L 2.46875 0 L 0.625 0 L 0.625 -5.3125 L 2.015625 -5.3125 L 2.25 -4.65625 L 2.359375 -4.65625 C 2.492188 -4.894531 2.691406 -5.078125 2.953125 -5.203125 C 3.222656 -5.335938 3.53125 -5.40625 3.875 -5.40625 C 4.632812 -5.40625 5.171875 -5.171875 5.484375 -4.703125 L 5.625 -4.703125 C 5.78125 -4.921875 5.988281 -5.09375 6.25 -5.21875 C 6.519531 -5.34375 6.816406 -5.40625 7.140625 -5.40625 C 7.765625 -5.40625 8.226562 -5.242188 8.53125 -4.921875 C 8.832031 -4.597656 8.984375 -4.109375 8.984375 -3.453125 L 8.984375 0 Z M 7.15625 0 "/></g></g><g style="fill:rgb(100%,8.628845%,8.628845%);fill-opacity:1;"><g transform="translate(44.77565, 28.589278)"><path style="stroke:none;" d="M 2.46875 0 L 0.640625 0 L 0.640625 -5.3125 L 2.46875 -5.3125 Z M 0.59375 -6.625 C 0.59375 -6.90625 0.664062 -7.109375 0.8125 -7.234375 C 0.96875 -7.367188 1.21875 -7.4375 1.5625 -7.4375 C 1.90625 -7.4375 2.15625 -7.367188 2.3125 -7.234375 C 2.46875 -7.097656 2.546875 -6.894531 2.546875 -6.625 C 2.546875 -6.09375 2.21875 -5.828125 1.5625 -5.828125 C 0.914062 -5.828125 0.59375 -6.09375 0.59375 -6.625 Z M 0.59375 -6.625 "/></g></g><g style="fill:rgb(100%,8.628845%,8.628845%);fill-opacity:1;"><g transform="translate(47.895325, 28.589278)"><path style="stroke:none;" d="M 4.734375 -1.625 C 4.734375 -1.0625 4.535156 -0.632812 4.140625 -0.34375 C 3.753906 -0.0507812 3.203125 0.09375 2.484375 0.09375 C 2.085938 0.09375 1.742188 0.0703125 1.453125 0.03125 C 1.160156 -0.0078125 0.863281 -0.0859375 0.5625 -0.203125 L 0.5625 -1.671875 C 0.851562 -1.546875 1.164062 -1.441406 1.5 -1.359375 C 1.84375 -1.273438 2.144531 -1.234375 2.40625 -1.234375 C 2.800781 -1.234375 3 -1.328125 3 -1.515625 C 3 -1.609375 2.941406 -1.691406 2.828125 -1.765625 C 2.722656 -1.835938 2.40625 -1.976562 1.875 -2.1875 C 1.382812 -2.382812 1.039062 -2.609375 0.84375 -2.859375 C 0.65625 -3.117188 0.5625 -3.445312 0.5625 -3.84375 C 0.5625 -4.332031 0.75 -4.710938 1.125 -4.984375 C 1.507812 -5.265625 2.050781 -5.40625 2.75 -5.40625 C 3.09375 -5.40625 3.414062 -5.363281 3.71875 -5.28125 C 4.03125 -5.207031 4.351562 -5.097656 4.6875 -4.953125 L 4.1875 -3.765625 C 3.945312 -3.878906 3.691406 -3.972656 3.421875 -4.046875 C 3.148438 -4.128906 2.925781 -4.171875 2.75 -4.171875 C 2.457031 -4.171875 2.3125 -4.09375 2.3125 -3.9375 C 2.3125 -3.851562 2.363281 -3.773438 2.46875 -3.703125 C 2.570312 -3.640625 2.875 -3.515625 3.375 -3.328125 C 3.738281 -3.171875 4.007812 -3.019531 4.1875 -2.875 C 4.375 -2.726562 4.507812 -2.554688 4.59375 -2.359375 C 4.6875 -2.160156 4.734375 -1.914062 4.734375 -1.625 Z M 4.734375 -1.625 "/></g></g><g style="fill:rgb(100%,8.628845%,8.628845%);fill-opacity:1;"><g transform="translate(53.010468, 28.589278)"><path style="stroke:none;" d="M 4.734375 -1.625 C 4.734375 -1.0625 4.535156 -0.632812 4.140625 -0.34375 C 3.753906 -0.0507812 3.203125 0.09375 2.484375 0.09375 C 2.085938 0.09375 1.742188 0.0703125 1.453125 0.03125 C 1.160156 -0.0078125 0.863281 -0.0859375 0.5625 -0.203125 L 0.5625 -1.671875 C 0.851562 -1.546875 1.164062 -1.441406 1.5 -1.359375 C 1.84375 -1.273438 2.144531 -1.234375 2.40625 -1.234375 C 2.800781 -1.234375 3 -1.328125 3 -1.515625 C 3 -1.609375 2.941406 -1.691406 2.828125 -1.765625 C 2.722656 -1.835938 2.40625 -1.976562 1.875 -2.1875 C 1.382812 -2.382812 1.039062 -2.609375 0.84375 -2.859375 C 0.65625 -3.117188 0.5625 -3.445312 0.5625 -3.84375 C 0.5625 -4.332031 0.75 -4.710938 1.125 -4.984375 C 1.507812 -5.265625 2.050781 -5.40625 2.75 -5.40625 C 3.09375 -5.40625 3.414062 -5.363281 3.71875 -5.28125 C 4.03125 -5.207031 4.351562 -5.097656 4.6875 -4.953125 L 4.1875 -3.765625 C 3.945312 -3.878906 3.691406 -3.972656 3.421875 -4.046875 C 3.148438 -4.128906 2.925781 -4.171875 2.75 -4.171875 C 2.457031 -4.171875 2.3125 -4.09375 2.3125 -3.9375 C 2.3125 -3.851562 2.363281 -3.773438 2.46875 -3.703125 C 2.570312 -3.640625 2.875 -3.515625 3.375 -3.328125 C 3.738281 -3.171875 4.007812 -3.019531 4.1875 -2.875 C 4.375 -2.726562 4.507812 -2.554688 4.59375 -2.359375 C 4.6875 -2.160156 4.734375 -1.914062 4.734375 -1.625 Z M 4.734375 -1.625 "/></g></g><g style="fill:rgb(100%,8.628845%,8.628845%);fill-opacity:1;"><g transform="translate(58.125611, 28.589278)"><path style="stroke:none;" d="M 2.46875 0 L 0.640625 0 L 0.640625 -5.3125 L 2.46875 -5.3125 Z M 0.59375 -6.625 C 0.59375 -6.90625 0.664062 -7.109375 0.8125 -7.234375 C 0.96875 -7.367188 1.21875 -7.4375 1.5625 -7.4375 C 1.90625 -7.4375 2.15625 -7.367188 2.3125 -7.234375 C 2.46875 -7.097656 2.546875 -6.894531 2.546875 -6.625 C 2.546875 -6.09375 2.21875 -5.828125 1.5625 -5.828125 C 0.914062 -5.828125 0.59375 -6.09375 0.59375 -6.625 Z M 0.59375 -6.625 "/></g></g><g style="fill:rgb(100%,8.628845%,8.628845%);fill-opacity:1;"><g transform="translate(61.245285, 28.589278)"><path style="stroke:none;" d="M 5.703125 -2.671875 C 5.703125 -1.796875 5.46875 -1.113281 5 -0.625 C 4.53125 -0.144531 3.878906 0.09375 3.046875 0.09375 C 2.234375 0.09375 1.585938 -0.148438 1.109375 -0.640625 C 0.640625 -1.140625 0.40625 -1.816406 0.40625 -2.671875 C 0.40625 -3.535156 0.632812 -4.207031 1.09375 -4.6875 C 1.5625 -5.164062 2.21875 -5.40625 3.0625 -5.40625 C 3.582031 -5.40625 4.039062 -5.289062 4.4375 -5.0625 C 4.84375 -4.84375 5.15625 -4.523438 5.375 -4.109375 C 5.59375 -3.703125 5.703125 -3.222656 5.703125 -2.671875 Z M 2.265625 -2.671875 C 2.265625 -2.210938 2.320312 -1.863281 2.4375 -1.625 C 2.5625 -1.382812 2.769531 -1.265625 3.0625 -1.265625 C 3.34375 -1.265625 3.539062 -1.382812 3.65625 -1.625 C 3.78125 -1.863281 3.84375 -2.210938 3.84375 -2.671875 C 3.84375 -3.117188 3.78125 -3.457031 3.65625 -3.6875 C 3.539062 -3.914062 3.335938 -4.03125 3.046875 -4.03125 C 2.765625 -4.03125 2.5625 -3.914062 2.4375 -3.6875 C 2.320312 -3.457031 2.265625 -3.117188 2.265625 -2.671875 Z M 2.265625 -2.671875 "/></g></g><g style="fill:rgb(100%,8.628845%,8.628845%);fill-opacity:1;"><g transform="translate(67.358162, 28.589278)"><path style="stroke:none;" d="M 3.984375 0 L 3.984375 -2.890625 C 3.984375 -3.242188 3.929688 -3.507812 3.828125 -3.6875 C 3.722656 -3.875 3.5625 -3.96875 3.34375 -3.96875 C 3.03125 -3.96875 2.804688 -3.84375 2.671875 -3.59375 C 2.535156 -3.34375 2.46875 -2.921875 2.46875 -2.328125 L 2.46875 0 L 0.625 0 L 0.625 -5.3125 L 2.015625 -5.3125 L 2.25 -4.65625 L 2.359375 -4.65625 C 2.503906 -4.90625 2.71875 -5.09375 3 -5.21875 C 3.28125 -5.34375 3.597656 -5.40625 3.953125 -5.40625 C 4.535156 -5.40625 4.988281 -5.234375 5.3125 -4.890625 C 5.644531 -4.546875 5.8125 -4.066406 5.8125 -3.453125 L 5.8125 0 Z M 3.984375 0 "/></g></g><g style="fill:rgb(100%,8.628845%,8.628845%);fill-opacity:1;"><g transform="translate(73.78488, 28.589278)"><path style="stroke:none;" d="M 3.71875 0 L 2.328125 -4.9375 L 2.28125 -4.9375 C 2.34375 -4.09375 2.375 -3.4375 2.375 -2.96875 L 2.375 0 L 0.734375 0 L 0.734375 -6.84375 L 3.203125 -6.84375 L 4.640625 -1.984375 L 4.671875 -1.984375 L 6.078125 -6.84375 L 8.546875 -6.84375 L 8.546875 0 L 6.84375 0 L 6.84375 -3 C 6.84375 -3.15625 6.84375 -3.328125 6.84375 -3.515625 C 6.851562 -3.710938 6.875 -4.179688 6.90625 -4.921875 L 6.875 -4.921875 L 5.484375 0 Z M 3.71875 0 "/></g></g><g style="fill:rgb(100%,8.628845%,8.628845%);fill-opacity:1;"><g transform="translate(83.059586, 28.589278)"><path style="stroke:none;" d="M 4.09375 0 L 3.75 -0.703125 L 3.703125 -0.703125 C 3.453125 -0.398438 3.195312 -0.191406 2.9375 -0.078125 C 2.6875 0.0351562 2.359375 0.09375 1.953125 0.09375 C 1.453125 0.09375 1.054688 -0.0546875 0.765625 -0.359375 C 0.484375 -0.660156 0.34375 -1.082031 0.34375 -1.625 C 0.34375 -2.1875 0.539062 -2.601562 0.9375 -2.875 C 1.332031 -3.15625 1.898438 -3.3125 2.640625 -3.34375 L 3.53125 -3.375 L 3.53125 -3.453125 C 3.53125 -3.890625 3.316406 -4.109375 2.890625 -4.109375 C 2.503906 -4.109375 2.007812 -3.976562 1.40625 -3.71875 L 0.875 -4.921875 C 1.5 -5.242188 2.28125 -5.40625 3.21875 -5.40625 C 3.90625 -5.40625 4.429688 -5.234375 4.796875 -4.890625 C 5.171875 -4.554688 5.359375 -4.085938 5.359375 -3.484375 L 5.359375 0 Z M 2.734375 -1.203125 C 2.953125 -1.203125 3.140625 -1.269531 3.296875 -1.40625 C 3.460938 -1.550781 3.546875 -1.734375 3.546875 -1.953125 L 3.546875 -2.375 L 3.125 -2.359375 C 2.519531 -2.328125 2.21875 -2.101562 2.21875 -1.6875 C 2.21875 -1.363281 2.390625 -1.203125 2.734375 -1.203125 Z M 2.734375 -1.203125 "/></g></g><g style="fill:rgb(100%,8.628845%,8.628845%);fill-opacity:1;"><g transform="translate(89.03662, 28.589278)"><path style="stroke:none;" d="M 3.84375 -5.40625 C 4 -5.40625 4.148438 -5.390625 4.296875 -5.359375 L 4.390625 -5.34375 L 4.234375 -3.609375 C 4.078125 -3.648438 3.867188 -3.671875 3.609375 -3.671875 C 3.203125 -3.671875 2.910156 -3.578125 2.734375 -3.390625 C 2.554688 -3.210938 2.46875 -2.953125 2.46875 -2.609375 L 2.46875 0 L 0.625 0 L 0.625 -5.3125 L 2 -5.3125 L 2.28125 -4.453125 L 2.375 -4.453125 C 2.519531 -4.734375 2.726562 -4.960938 3 -5.140625 C 3.28125 -5.316406 3.5625 -5.40625 3.84375 -5.40625 Z M 3.84375 -5.40625 "/></g></g><g style="fill:rgb(100%,8.628845%,8.628845%);fill-opacity:1;"><g transform="translate(93.53813, 28.589278)"><path style="stroke:none;" d="M 3.234375 -1.359375 C 3.484375 -1.359375 3.78125 -1.414062 4.125 -1.53125 L 4.125 -0.203125 C 3.875 -0.0976562 3.632812 -0.0234375 3.40625 0.015625 C 3.1875 0.0664062 2.925781 0.09375 2.625 0.09375 C 2.007812 0.09375 1.566406 -0.0546875 1.296875 -0.359375 C 1.023438 -0.660156 0.890625 -1.125 0.890625 -1.75 L 0.890625 -3.9375 L 0.25 -3.9375 L 0.25 -4.6875 L 1.0625 -5.25 L 1.53125 -6.375 L 2.734375 -6.375 L 2.734375 -5.3125 L 4.03125 -5.3125 L 4.03125 -3.9375 L 2.734375 -3.9375 L 2.734375 -1.875 C 2.734375 -1.53125 2.898438 -1.359375 3.234375 -1.359375 Z M 3.234375 -1.359375 "/></g></g></g></svg>